<?xml version="1.0" encoding="UTF-8" standalone="no"?>
<!-- Created with Inkscape (http://www.inkscape.org/) -->

<svg
   xmlns:dc="http://purl.org/dc/elements/1.1/"
   xmlns:cc="http://creativecommons.org/ns#"
   xmlns:rdf="http://www.w3.org/1999/02/22-rdf-syntax-ns#"
   xmlns:svg="http://www.w3.org/2000/svg"
   xmlns="http://www.w3.org/2000/svg"
   xmlns:sodipodi="http://sodipodi.sourceforge.net/DTD/sodipodi-0.dtd"
   xmlns:inkscape="http://www.inkscape.org/namespaces/inkscape"
   width="256px"
   height="256px"
   viewBox="0 0 256 256"
   version="1.1"
   id="SVGRoot"
   inkscape:version="0.92.1 r15371"
   sodipodi:docname="potion.svg"
   inkscape:export-filename="M:\var\intranet-dev\images-site\rpg\items\pot_blue.png"
   inkscape:export-xdpi="48"
   inkscape:export-ydpi="48">
  <sodipodi:namedview
     id="base"
     pagecolor="#ffffff"
     bordercolor="#666666"
     borderopacity="1.0"
     inkscape:pageopacity="0.0"
     inkscape:pageshadow="2"
     inkscape:zoom="2.8284271"
     inkscape:cx="57.865614"
     inkscape:cy="113.56563"
     inkscape:document-units="px"
     inkscape:current-layer="layer1"
     showgrid="false"
     inkscape:window-width="1920"
     inkscape:window-height="1017"
     inkscape:window-x="-8"
     inkscape:window-y="-8"
     inkscape:window-maximized="1"
     inkscape:grid-bbox="true"
     showguides="false" />
  <defs
     id="defs6715" />
  <metadata
     id="metadata6718">
    <rdf:RDF>
      <cc:Work
         rdf:about="">
        <dc:format>image/svg+xml</dc:format>
        <dc:type
           rdf:resource="http://purl.org/dc/dcmitype/StillImage" />
        <dc:title></dc:title>
      </cc:Work>
    </rdf:RDF>
  </metadata>
  <g
     id="layer1"
     inkscape:groupmode="layer"
     inkscape:label="Layer 1">
    <path
       style="fill:#ff00ff;fill-opacity:1;fill-rule:evenodd;stroke:none;stroke-width:1px;stroke-linecap:butt;stroke-linejoin:miter;stroke-opacity:1"
       d="m 72.1875,150.5 c 51.95724,-22.17236 89.73392,-11.18082 116.125,3.125 2.16249,21.2527 -7.8125,47.875 -56.6875,46.75 C 82.75,199.25 70,173.75 72.1875,150.5 Z"
       id="path7276"
       inkscape:connector-curvature="0"
       sodipodi:nodetypes="ccsc" />
    <path
       style="fill:#f9f9f9;fill-opacity:0.47342995;fill-rule:evenodd;stroke:none;stroke-width:1px;stroke-linecap:butt;stroke-linejoin:miter;stroke-opacity:1"
       d="m 72.1875,150.5 c 48.83959,-20.43634 82.31758,-15.72301 116.125,3.125 -16.22039,13.10277 -51.0454,18.49446 -51.66411,17.96413 C 116.28888,170.74695 80.357278,166.00139 72.1875,150.5"
       id="path7278"
       inkscape:connector-curvature="0"
       sodipodi:nodetypes="cccc" />
    <path
       style="fill:#ffad2e;fill-rule:evenodd;stroke:#000000;stroke-width:1px;stroke-linecap:butt;stroke-linejoin:miter;stroke-opacity:1;fill-opacity:1"
       d="m 121.71075,57.391382 c 0.88389,1.325826 13.16987,1.679379 15.55635,0.265166 2.38649,-1.414214 8.13173,-29.610097 8.13173,-29.610097 0,0 -27.22361,-2.916816 -28.90298,0.53033 -1.67938,3.447145 2.65164,24.925514 5.2149,28.814601 z"
       id="path7280"
       inkscape:connector-curvature="0"
       sodipodi:nodetypes="ccccc" />
    <path
       style="fill:#1ad2ba;fill-rule:evenodd;stroke:#000000;stroke-width:1px;stroke-linecap:butt;stroke-linejoin:miter;stroke-opacity:1;fill-opacity:0.33333334"
       d="M 130.28442,200.49212 C 79.203153,199.62035 71.521338,169.84389 71.771338,156.6515 c 0.174167,-9.19074 0.329282,-42.25915 35.378272,-40.14088 19.79899,-8.13172 11.42075,-55.404325 10.00654,-58.232752 -3.41421,-7.078427 -11.83538,-8.174621 -11.12827,-13.831475 6.95711,-7.906855 46.76309,-6.606602 53.51309,-0.931981 -3.25,9.674621 -13.21406,8.485281 -14.62827,14.495689 -1.41422,6.010408 -14.40641,59.500519 11.75654,58.086309 28.41295,2.58579 31.06761,22.17031 32.12827,40.55509 1.06066,18.38477 -7.43181,44.71239 -58.51309,43.84062 z"
       id="path7274"
       inkscape:connector-curvature="0"
       sodipodi:nodetypes="zsccccccsz" />
  </g>
</svg>
