<?xml version="1.0" encoding="UTF-8" standalone="no"?>
<!-- Created with Inkscape (http://www.inkscape.org/) -->

<svg
   width="256"
   height="256"
   viewBox="0 0 256 256"
   version="1.1"
   id="svg1"
   inkscape:version="1.4.3 (0d15f75, 2025-12-25)"
   sodipodi:docname="file.pdf.svg"
   xmlns:inkscape="http://www.inkscape.org/namespaces/inkscape"
   xmlns:sodipodi="http://sodipodi.sourceforge.net/DTD/sodipodi-0.dtd"
   xmlns:xlink="http://www.w3.org/1999/xlink"
   xmlns="http://www.w3.org/2000/svg"
   xmlns:svg="http://www.w3.org/2000/svg">
  <sodipodi:namedview
     id="namedview1"
     pagecolor="#505050"
     bordercolor="#ffffff"
     borderopacity="1"
     inkscape:showpageshadow="0"
     inkscape:pageopacity="0"
     inkscape:pagecheckerboard="1"
     inkscape:deskcolor="#505050"
     inkscape:document-units="px"
     inkscape:zoom="3.1572318"
     inkscape:cx="130.96916"
     inkscape:cy="149.65642"
     inkscape:window-width="1920"
     inkscape:window-height="1137"
     inkscape:window-x="1072"
     inkscape:window-y="721"
     inkscape:window-maximized="1"
     inkscape:current-layer="layer1" />
  <defs
     id="defs1">
    <linearGradient
       id="linearGradient5"
       inkscape:collect="always">
      <stop
         style="stop-color:#696969;stop-opacity:1;"
         offset="0"
         id="stop5" />
      <stop
         style="stop-color:#696969;stop-opacity:0;"
         offset="1"
         id="stop6" />
    </linearGradient>
    <linearGradient
       id="linearGradient2"
       inkscape:collect="always">
      <stop
         style="stop-color:#d0ddcb;stop-opacity:1;"
         offset="0"
         id="stop2" />
      <stop
         style="stop-color:#f4fff1;stop-opacity:1;"
         offset="1"
         id="stop3" />
    </linearGradient>
    <linearGradient
       inkscape:collect="always"
       xlink:href="#linearGradient2"
       id="linearGradient3"
       x1="175.31186"
       y1="45.744717"
       x2="167.35323"
       y2="53.919407"
       gradientUnits="userSpaceOnUse"
       gradientTransform="translate(1.1758119,-1.2877939)" />
    <linearGradient
       inkscape:collect="always"
       xlink:href="#linearGradient5"
       id="linearGradient6"
       x1="142.56979"
       y1="68.416786"
       x2="189.31604"
       y2="30.048418"
       gradientUnits="userSpaceOnUse"
       gradientTransform="translate(4.3550809,-1.5836658)" />
    <filter
       inkscape:collect="always"
       style="color-interpolation-filters:sRGB"
       id="filter6"
       x="-0.09631577"
       y="-0.090128142"
       width="1.1926315"
       height="1.1802563">
      <feGaussianBlur
         inkscape:collect="always"
         stdDeviation="1.297 1.297"
         id="feGaussianBlur6" />
    </filter>
    <filter
       inkscape:collect="always"
       style="color-interpolation-filters:sRGB"
       id="filter3"
       x="-0.019412931"
       y="-0.035269721"
       width="1.0388259"
       height="1.0705394">
      <feGaussianBlur
         inkscape:collect="always"
         stdDeviation="0.94487895"
         id="feGaussianBlur3" />
    </filter>
    <filter
       inkscape:collect="always"
       style="color-interpolation-filters:sRGB"
       id="filter4"
       x="-0.1159389"
       y="-0.088577898"
       width="1.2318778"
       height="1.1771558">
      <feGaussianBlur
         inkscape:collect="always"
         stdDeviation="1.0738015"
         id="feGaussianBlur4" />
    </filter>
  </defs>
  <g
     inkscape:label="Lag 1"
     inkscape:groupmode="layer"
     id="layer1">
    <path
       id="rect1"
       style="fill:#f4fff1;stroke:#656565;stroke-linecap:round;stroke-linejoin:round"
       d="M 57,26 H 155 C 158.56874,26 162.32602,27.69323 165,30 L 195,60 C 197.96696,62.966966 199,66.27156 199,70 V 230.30481 L 57,230 Z"
       sodipodi:nodetypes="cccccccc" />
    <path
       style="mix-blend-mode:normal;fill:url(#linearGradient6);fill-rule:evenodd;stroke:none;stroke-width:0.999998px;stroke-linecap:butt;stroke-linejoin:miter;stroke-opacity:1;filter:url(#filter6)"
       d="M 160.88348,28.669978 C 166.98655,44.951541 160.54366,47.777871 162.65432,62.190034 C 174.84121,61.068294 184.49104,60.122895 192.87987,63.154669 C 195.62477,64.146693 179.96681,50.844116 178.83457,49.84613 C 177.70232,48.848144 173.86824,40.737611 173.05949,40.35377 C 172.25074,39.96993 160.88348,28.669978 160.88348,28.669978 Z"
       id="path3"
       sodipodi:nodetypes="ccsssc" />
    <path
       style="fill:url(#linearGradient3);fill-rule:evenodd;stroke:#f4fff1;stroke-width:1px;stroke-linecap:butt;stroke-linejoin:round;stroke-opacity:1"
       d="M 157.5861,27.317177 C 159.51942,29.419313 163.05353,29.258882 163.89088,31.523789 C 166.84832,39.523249 165.34656,49.45194 165.22064,59.286554 C 187.53077,58.699757 189.47203,58.294264 195.01305,61.42594 L 165.00386,31.410325 C 162.8972,29.585283 159.48357,27.677914 157.5861,27.317177 Z"
       id="path1"
       sodipodi:nodetypes="cscccc" />
    <rect
       style="fill:#ff1d1d;fill-opacity:1;stroke:#606060;stroke-width:2;stroke-linecap:round;stroke-linejoin:round;stroke-dasharray:none;stroke-opacity:1"
       id="rect2"
       width="100"
       height="40"
       x="47.5"
       y="50.5" />
    <path
       style="baseline-shift:baseline;display:inline;overflow:visible;fill:#eaf4e7;fill-opacity:1;fill-rule:evenodd;stroke:none;stroke-width:0.5;stroke-dasharray:none;stroke-opacity:1;enable-background:accumulate;stop-color:#000000"
       d="M 77.414918,54.479117 C 71.225962,53.786523 72.620336,54.048494 68,54.049032 V 86.015525 L 73.655948,86.082541 L 73.881538,69.907412 C 74.860304,70.022074 75.812442,70.174147 76.984019,70.11325 C 78.683967,70.024888 80.58741,69.68206 82.261277,68.514413 C 83.935143,67.346765 85.098383,65.258002 85.16605,62.829927 C 85.238736,60.221799 84.292819,57.987023 82.699781,56.59255 C 81.106744,55.198076 79.152152,54.673528 77.414918,54.479117 Z M 76.804054,59.347432 C 77.870502,59.466775 78.705421,59.77958 79.171469,60.187538 C 79.637519,60.595497 80.018749,61.129833 79.974972,62.70068 C 79.939877,63.959958 79.641399,64.248096 79.17654,64.572371 C 78.711678,64.896646 77.800437,65.161415 76.700132,65.218608 C 75.414013,65.285458 74.88521,65.079823 73.955044,64.907457 L 74.03362,59.553269 C 74.962633,59.408233 75.532962,59.205186 76.804054,59.347432 Z"
       id="path13"
       sodipodi:nodetypes="sccccssssssssssccs" />
    <path
       style="baseline-shift:baseline;display:inline;overflow:visible;fill:#eaf4e7;fill-opacity:1;fill-rule:evenodd;stroke:none;stroke-width:0.5;stroke-dasharray:none;stroke-opacity:1;enable-background:accumulate;stop-color:#000000"
       d="M 95.757022,54.14317 C 89.456084,53.954495 93.426046,54.048493 88.80571,54.049031 V 86.015524 L 94.461658,86.08254 C 104.83011,85.642439 105.76072,80.062461 105.97176,69.977775 C 106.1828,59.893089 103.05329,54.087282 95.757022,54.14317 Z M 100.78068,69.977775 C 100.78068,79.470692 98.977027,81.549947 94.760754,81.773497 L 94.83933,59.553268 C 98.259213,59.277793 100.78068,60.484858 100.78068,69.977775 Z"
       id="path13-0"
       sodipodi:nodetypes="cccczczccz" />
    <path
       id="path10"
       style="baseline-shift:baseline;display:inline;overflow:visible;fill:#eaf4e7;fill-opacity:1;fill-rule:evenodd;stroke:none;stroke-width:0.5;stroke-dasharray:none;stroke-opacity:1;enable-background:accumulate;stop-color:#000000"
       d="M 125,54 C 125.12907,54.064513 112.86824,53.95992 109.65607,54.064513 C 109.53759,64.277544 109.69706,75.850762 109.65607,86.064513 L 115.53076,86.064513 L 115.48163,71.715599 C 118.84483,71.765761 120.5563,71.730937 123.04519,71.756288 L 123.10095,66.854465 C 120.52322,66.82821 118.85482,66.866111 115.51965,66.81617 L 115.57794,59.463436 C 119.88056,59.434897 125.12872,59.432321 125.12872,59.432321 Z"
       sodipodi:nodetypes="ccccccccccc" />
    <g
       id="g3"
       style="filter:url(#filter3)">
      <path
         style="fill:none;fill-rule:evenodd;stroke:#898989;stroke-width:3;stroke-linecap:butt;stroke-linejoin:miter;stroke-dasharray:none;stroke-opacity:1"
         d="M 70.306831,104.21221 H 139.04242"
         id="path6-3" />
      <path
         style="fill:none;fill-rule:evenodd;stroke:#898989;stroke-width:3;stroke-linecap:butt;stroke-linejoin:miter;stroke-dasharray:none;stroke-opacity:1"
         d="M 70.306831,119.61151 H 139.04242"
         id="path6-5-9" />
      <path
         style="fill:none;fill-rule:evenodd;stroke:#898989;stroke-width:3;stroke-linecap:butt;stroke-linejoin:miter;stroke-dasharray:none;stroke-opacity:1"
         d="M 70.306831,134.44448 H 139.04242"
         id="path6-52-8" />
      <path
         style="fill:none;fill-rule:evenodd;stroke:#898989;stroke-width:3;stroke-linecap:butt;stroke-linejoin:miter;stroke-dasharray:none;stroke-opacity:1"
         d="M 70.306831,149.84379 H 139.04242"
         id="path6-5-6-80" />
      <path
         style="fill:none;fill-rule:evenodd;stroke:#898989;stroke-width:3;stroke-linecap:butt;stroke-linejoin:miter;stroke-dasharray:none;stroke-opacity:1"
         d="M 70.398246,165.40624 H 187.12121"
         id="path6-0-8" />
      <path
         style="fill:none;fill-rule:evenodd;stroke:#898989;stroke-width:3;stroke-linecap:butt;stroke-linejoin:miter;stroke-dasharray:none;stroke-opacity:1"
         d="M 70.398246,180.80554 H 187.12121"
         id="path6-5-64-7" />
      <path
         style="fill:none;fill-rule:evenodd;stroke:#898989;stroke-width:3;stroke-linecap:butt;stroke-linejoin:miter;stroke-dasharray:none;stroke-opacity:1"
         d="M 70.398246,195.63851 H 187.12121"
         id="path6-52-6-7" />
      <path
         style="fill:none;fill-rule:evenodd;stroke:#898989;stroke-width:3;stroke-linecap:butt;stroke-linejoin:miter;stroke-dasharray:none;stroke-opacity:1"
         d="M 70.398246,211.03782 H 187.12121"
         id="path6-5-6-8-8" />
    </g>
    <g
       id="g2"
       transform="translate(-0.63347032,-0.63346631)">
      <path
         style="fill:none;fill-rule:evenodd;stroke:#b0b0b0;stroke-width:3;stroke-linecap:butt;stroke-linejoin:miter;stroke-dasharray:none;stroke-opacity:1"
         d="M 69.346897,103.15349 H 138.08249"
         id="path6" />
      <path
         style="fill:none;fill-rule:evenodd;stroke:#b0b0b0;stroke-width:3;stroke-linecap:butt;stroke-linejoin:miter;stroke-dasharray:none;stroke-opacity:1"
         d="M 69.346897,118.55279 H 138.08249"
         id="path6-5" />
      <path
         style="fill:none;fill-rule:evenodd;stroke:#b0b0b0;stroke-width:3;stroke-linecap:butt;stroke-linejoin:miter;stroke-dasharray:none;stroke-opacity:1"
         d="M 69.346897,133.38576 H 138.08249"
         id="path6-52" />
      <path
         style="fill:none;fill-rule:evenodd;stroke:#b0b0b0;stroke-width:3;stroke-linecap:butt;stroke-linejoin:miter;stroke-dasharray:none;stroke-opacity:1"
         d="M 69.346897,148.78507 H 138.08249"
         id="path6-5-6" />
      <path
         style="fill:none;fill-rule:evenodd;stroke:#b0b0b0;stroke-width:3;stroke-linecap:butt;stroke-linejoin:miter;stroke-dasharray:none;stroke-opacity:1"
         d="M 69.438312,164.34752 H 186.16128"
         id="path6-0" />
      <path
         style="fill:none;fill-rule:evenodd;stroke:#b0b0b0;stroke-width:3;stroke-linecap:butt;stroke-linejoin:miter;stroke-dasharray:none;stroke-opacity:1"
         d="M 69.438312,179.74682 H 186.16128"
         id="path6-5-64" />
      <path
         style="fill:none;fill-rule:evenodd;stroke:#b0b0b0;stroke-width:3;stroke-linecap:butt;stroke-linejoin:miter;stroke-dasharray:none;stroke-opacity:1"
         d="M 69.438312,194.57979 H 186.16128"
         id="path6-52-6" />
      <path
         style="fill:none;fill-rule:evenodd;stroke:#b0b0b0;stroke-width:3;stroke-linecap:butt;stroke-linejoin:miter;stroke-dasharray:none;stroke-opacity:1"
         d="M 69.438312,209.9791 H 186.16128"
         id="path6-5-6-8" />
    </g>
    <rect
       style="mix-blend-mode:normal;fill:none;fill-opacity:1;stroke:#7e7e7e;stroke-width:3;stroke-linecap:round;stroke-linejoin:miter;stroke-dasharray:none;stroke-opacity:1;filter:url(#filter4)"
       id="rect3-1"
       width="35.166142"
       height="46.028679"
       x="150.00504"
       y="104.24803" />
    <rect
       style="fill:#f4fff1;fill-opacity:1;stroke:#b0b0b0;stroke-width:3;stroke-linecap:round;stroke-linejoin:miter;stroke-dasharray:none;stroke-opacity:1"
       id="rect3"
       width="35.166142"
       height="46.028679"
       x="148.86459"
       y="102.14644" />
  </g>
</svg>
