<?xml version="1.0" encoding="UTF-8" standalone="no"?>
<!-- Created with Inkscape (http://www.inkscape.org/) -->

<svg
   xmlns:dc="http://purl.org/dc/elements/1.1/"
   xmlns:cc="http://creativecommons.org/ns#"
   xmlns:rdf="http://www.w3.org/1999/02/22-rdf-syntax-ns#"
   xmlns:svg="http://www.w3.org/2000/svg"
   xmlns="http://www.w3.org/2000/svg"
   xmlns:xlink="http://www.w3.org/1999/xlink"
   xmlns:sodipodi="http://sodipodi.sourceforge.net/DTD/sodipodi-0.dtd"
   xmlns:inkscape="http://www.inkscape.org/namespaces/inkscape"
   width="256"
   height="512"
   viewBox="0 0 67.733333 135.46667"
   version="1.1"
   id="svg4500"
   inkscape:version="0.92.1 r15371"
   sodipodi:docname="generic_female.svg">
  <defs
     id="defs4494">
    <linearGradient
       inkscape:collect="always"
       id="linearGradient5117">
      <stop
         style="stop-color:#dc6ab3;stop-opacity:1;"
         offset="0"
         id="stop5113" />
      <stop
         style="stop-color:#dc6ab3;stop-opacity:0;"
         offset="1"
         id="stop5115" />
    </linearGradient>
    <linearGradient
       inkscape:collect="always"
       xlink:href="#linearGradient5117"
       id="linearGradient5127"
       x1="-39.598694"
       y1="188.81372"
       x2="-35.735031"
       y2="194.39297"
       gradientUnits="userSpaceOnUse"
       gradientTransform="matrix(0.48642842,0,0,0.50440796,49.114418,99.841151)" />
    <linearGradient
       inkscape:collect="always"
       xlink:href="#linearGradient5117"
       id="linearGradient5129"
       x1="28.109053"
       y1="189.37933"
       x2="24.589392"
       y2="193.08769"
       gradientUnits="userSpaceOnUse"
       gradientTransform="matrix(0.48642842,0,0,0.50440796,-49.114418,99.841151)" />
  </defs>
  <sodipodi:namedview
     id="base"
     pagecolor="#ffffff"
     bordercolor="#666666"
     borderopacity="1.0"
     inkscape:pageopacity="0.0"
     inkscape:pageshadow="2"
     inkscape:zoom="2.8"
     inkscape:cx="35.213786"
     inkscape:cy="260.63723"
     inkscape:document-units="px"
     inkscape:current-layer="layer1"
     showgrid="false"
     units="px"
     borderlayer="false"
     inkscape:window-width="1920"
     inkscape:window-height="1017"
     inkscape:window-x="-8"
     inkscape:window-y="-8"
     inkscape:window-maximized="1"
     showguides="false" />
  <metadata
     id="metadata4497">
    <rdf:RDF>
      <cc:Work
         rdf:about="">
        <dc:format>image/svg+xml</dc:format>
        <dc:type
           rdf:resource="http://purl.org/dc/dcmitype/StillImage" />
        <dc:title></dc:title>
      </cc:Work>
    </rdf:RDF>
  </metadata>
  <g
     inkscape:label="Layer 1"
     inkscape:groupmode="layer"
     id="layer1"
     transform="translate(0,-161.53332)">
    <path
       style="fill:#ffddbf;fill-opacity:1;fill-rule:evenodd;stroke:#000000;stroke-width:0.26458335px;stroke-linecap:butt;stroke-linejoin:miter;stroke-opacity:1"
       d="m 30.499226,205.92394 c 0.635232,-2.50465 0.169813,-6.24986 3.18002,-4.19923 2.323301,1.17742 0.619023,2.44959 2.061239,4.26133 3.021469,-0.21498 6.709641,0.64339 7.695082,0.79673 5.170429,-0.0267 5.387823,9.79471 6.830008,16.20868 0.517956,4.62095 -3.208021,9.92387 -2.240693,11.1722 0.20579,1.67689 0.772555,0.85245 1.341368,2.55517 0.814813,2.74176 2.099762,4.19866 1.38166,4.50822 -0.3936,0.16967 -0.98527,-0.98175 -2.556405,-4.00366 1.371479,3.2155 1.996298,4.29771 1.363194,4.62652 -0.267574,0.13897 -1.187784,-1.56576 -2.175303,-4.30381 0.944314,2.40736 1.9135,4.76322 1.289602,5.02562 -0.467784,0.19675 -0.769538,-0.63319 -2.054879,-4.72874 1.086187,2.85836 1.248217,4.40028 0.970583,4.49366 -0.277633,0.0934 -0.994932,-1.26177 -1.667403,-4.19755 -1.133763,0.88576 -0.360739,-0.13642 -0.347254,2.58605 -1.17137,1.96962 -0.62161,0.22504 -1.168164,-0.36205 -1.206321,-1.54869 -0.08683,-0.71759 -0.05729,-2.49379 0.01623,-0.97606 -0.14867,-1.75644 0.259111,-3.79191 -0.610815,-2.67326 0.616858,-3.18877 0.486959,-10.42723 -1.587215,-1.32083 -1.980692,-8.64509 -2.476194,-12.65843 -1.353161,0.73152 -1.259224,11.10609 -3.493914,18.11463 7.607011,5.00492 2.272988,28.51937 0.607708,34.93449 -0.68753,2.64855 -0.331693,-1.08232 0.58014,8.13631 0.88917,8.98951 -1.442247,14.14363 1.646939,16.79124 0.154485,2.04531 -0.680253,1.62669 -3.156821,1.90602 -1.726767,-1.89149 -1.502303,-2.44416 -2.196003,-5.28271 -1.040248,-3.06262 0.812941,-2.48798 -0.259348,-5.71602 -1.227836,-2.46122 -0.984477,-11.03087 -1.561065,-15.01661 -3.093432,-7.8345 -2.82617,-13.02078 -1.335141,-19.82153 0.474328,-1.62666 -1.098551,-2.91573 -2.165833,0.47753 0.06855,7.87795 -1.637989,13.54363 -2.916483,17.5104 0.516892,4.62822 2.406773,11.90426 2.864601,16.95532 1.950597,3.49861 0.391805,1.20865 -1.948528,4.49903 -2.416953,1.73548 -1.408272,1.23722 -4.648167,1.05756 -0.306568,-1.23981 2.000486,-2.78919 3.76083,-4.74313 -1.758282,-3.16083 -4.59814,-7.86608 -4.930798,-17.77929 -4.679385,-9.25175 -0.922069,-31.94425 3.545064,-34.54581 -0.148114,-10.08908 -2.969318,-10.32763 -3.431351,-17.60003 -1.663099,6.47627 -4.828399,6.9783 -5.979621,11.44736 1.785475,2.13777 2.070753,3.49353 3.101008,7.08867 0.23489,0.81966 1.702862,-0.82679 2.459013,-0.0547 0.756152,0.77206 2.631473,0.22341 1.490028,1.57591 -0.585208,0.69342 -1.825153,-1.64125 -2.144605,-0.18017 0.768085,0.67099 1.124341,1.96383 1.00321,2.52119 -0.121132,0.55736 -0.719652,0.37924 -1.861118,-1.89171 0.612853,2.10393 1.246267,4.09878 0.735846,4.17427 -0.575957,0.0852 -0.728103,0.33631 -1.750622,-3.09905 0.151303,0.69154 0.594552,3.14342 0.316107,3.40668 -0.540068,0.51062 -0.714208,1.24066 -1.318669,-2.88763 0.04751,1.00338 0.252352,2.81528 -0.438949,2.77612 -0.634392,-0.0359 0.126674,0.74331 -0.737698,-2.31668 -0.08282,-1.62564 -0.03668,-1.29133 -0.381143,-1.94898 0.103801,-2.05691 -6.757977,-6.65432 -4.331241,-9.9818 2.055351,-3.39865 3.265363,-15.10319 9.406743,-15.35072 0.967497,-0.14021 6.382408,-0.0919 7.354691,-0.22389 z"
       id="path5131"
       inkscape:connector-curvature="0"
       sodipodi:nodetypes="cccccccscscscscccsccccssccccccccccccccccssscscscscscccccc" />
    <path
       style="fill:#ffddbf;fill-opacity:1;stroke:#000000;stroke-width:0.10583334;stroke-linecap:round;stroke-linejoin:bevel;stroke-miterlimit:4;stroke-dasharray:none;stroke-opacity:1;paint-order:normal"
       d="m 25.84187,194.93651 c -0.480981,6.57988 4.698835,8.05507 8.760139,8.50213 2.050709,0.22574 6.224256,-1.58789 6.002264,-8.50213 -0.149785,-4.66527 -3.304678,-8.45446 -7.381201,-8.45446 -4.076524,0 -7.041393,3.80584 -7.381202,8.45446 z"
       id="path5045"
       inkscape:connector-curvature="0"
       sodipodi:nodetypes="sssss" />
    <path
       style="fill:#ffffff;fill-opacity:1;fill-rule:evenodd;stroke:#000000;stroke-width:0.26458335;stroke-linecap:butt;stroke-linejoin:miter;stroke-miterlimit:4;stroke-dasharray:none;stroke-opacity:1"
       d="m 38.20051,195.32751 c -0.572839,-0.79654 -3.133661,-0.25763 -3.340997,0.4002 0.0698,0.56316 0.09787,1.13545 0.696302,1.58299 2.170942,0.003 2.214254,0.11966 2.644695,-1.98319 z"
       id="path5048"
       inkscape:connector-curvature="0"
       sodipodi:nodetypes="cccc" />
    <path
       style="fill:#ff0404;fill-opacity:1;fill-rule:evenodd;stroke:#000000;stroke-width:0.26458335px;stroke-linecap:butt;stroke-linejoin:miter;stroke-opacity:1"
       d="m 39.393688,194.45145 c -0.422901,0.49128 -0.295169,1.16572 -0.313943,1.77879 0.702189,0.57014 -0.527638,0.83163 -2e-6,1.56318 0.08467,0.6533 0.215058,1.32743 -0.156965,1.83268 -0.160778,0.76191 0.820399,1.06478 0.837175,1.77879 0.327894,0.14864 -0.496515,3.22188 -0.07721,3.28878 0.514025,-0.14529 2.464016,-3.31451 2.955006,-3.6122 0.677724,-0.27342 0.01101,-1.15827 0.418588,-1.61707 0.304829,-0.64473 0.388813,-1.31926 0.418581,-2.01876 -0.05668,-0.8154 0.233381,-1.55137 0.523224,-2.29344 0.07666,-0.46972 0.08168,-1.00643 0,-1.45537 -0.287678,-0.52188 0.08594,-1.30095 -0.09683,-1.82644 -0.123156,-0.89832 0.169884,-1.00118 -0.115667,-1.87065 -0.117746,-0.85399 -0.36657,-1.90264 -0.666271,-2.66563 -0.227769,-0.93273 -0.765307,-1.51559 -0.948176,-2.45681 -1.888475,-2.47499 -4.210981,-2.87611 -7.667259,-1.78327 -6.866894,-3.07688 -9.250087,1.52352 -10.545728,3.16425 -0.287936,0.99391 -0.94694,1.8417 -1.360413,2.74901 -0.174676,1.04945 -0.960529,1.88424 -0.941824,2.9768 7.08e-4,0.98627 0.08663,1.96172 0.05232,2.95244 -0.639017,0.70833 -0.522728,1.73893 -0.837178,2.5873 -0.212716,0.79708 -0.29811,1.62911 -0.261613,2.4743 -0.0098,0.57656 0.05436,1.17201 0.366261,1.62228 0.310305,0.42258 0.683539,0.63465 0.941825,0.97028 0.395854,0.44237 2.614036,3.06506 2.902686,3.40734 0.544571,-0.25578 -0.383427,-3.16189 0.0904,-3.3667 0.510924,-0.34207 0.682034,-1.05461 0.782611,-1.49982 0.306686,-0.54732 0.385695,-1.18859 0.595415,-1.81667 0.174571,-0.45086 0.05684,-1.09474 -0.03157,-1.56539 -0.03469,-0.11401 -0.40448,-0.82672 -0.519911,-1.24978 -0.115193,-0.51878 -0.06353,-1.08352 0.104649,-1.56316 0.268991,-0.37004 0.291193,-0.81614 0.627881,-1.18587 0.187215,-0.33047 0.386541,-0.50756 0.47091,-0.80855 0.184624,-0.68187 0.42751,-0.90001 0.627881,-1.61707 0.185763,-0.29754 0.357011,-0.96658 0.366265,-1.50925 0.07197,-0.67938 0.358037,2.02071 1.346522,2.2912 0.312251,0.22929 -0.573292,-2.71198 -0.09075,-2.0756 0.130936,0.25747 1.196153,1.53925 1.330241,0.88599 0.354593,-0.82519 -0.431975,-1.71594 0.0869,-2.44693 0.377202,-0.81713 0.82859,2.05347 1.10546,2.42707 -0.02223,-1.75966 0.430713,-1.40857 0.564487,-2.05196 0.116789,-0.67361 0.392055,-1.28947 0.635669,-0.29338 0.208014,0.62569 0.50231,2.15415 1.038689,0.8324 0.3302,-1.01484 0.783198,0.0377 1.020312,0.61986 0.17248,0.51243 0.491793,1.45529 0.497073,0.40427 0.0387,-0.96286 0.189916,-0.0728 0.156971,0.40165 0.0016,0.47929 -0.130354,1.50775 0.600682,1.22642 0.399641,-0.0667 0.998018,-0.87062 1.391126,-0.72358 0.05958,0.52491 0.219561,1.38428 0.467405,2.06013 0.130615,-0.36131 0.493304,-1.46684 0.575561,-1.43102 v 1.32321 c -0.01978,-0.8149 0.732713,-1.28396 0.784843,-0.43123 0.503936,0.19812 -0.157036,0.79468 -0.104643,1.18587 3.47e-4,0.14543 -0.005,0.29344 0.05233,0.43132 z"
       id="path5050"
       inkscape:connector-curvature="0"
       sodipodi:nodetypes="ccccccccccccccccccccccccccccccccccccccccccccccccccccccc" />
    <ellipse
       style="fill:url(#linearGradient5129);fill-opacity:1;stroke:#000000;stroke-width:0.13229167;stroke-linecap:round;stroke-linejoin:bevel;stroke-miterlimit:4;stroke-dasharray:none;stroke-opacity:1;paint-order:normal"
       id="path5076"
       cx="-36.061764"
       cy="196.22502"
       rx="0.64750683"
       ry="1.0573511"
       transform="scale(-1,1)" />
    <ellipse
       style="fill:#000000;fill-opacity:0.96296297;stroke:#000000;stroke-width:0.26458335;stroke-linecap:round;stroke-linejoin:bevel;stroke-miterlimit:4;stroke-dasharray:none;stroke-opacity:1;paint-order:normal"
       id="path5078"
       cx="-36.024563"
       cy="196.24046"
       rx="0.1387444"
       ry="0.36208856"
       transform="scale(-1,1)" />
    <path
       style="fill:#ffffff;fill-opacity:1;fill-rule:evenodd;stroke:#000000;stroke-width:0.26458335;stroke-linecap:butt;stroke-linejoin:miter;stroke-miterlimit:4;stroke-dasharray:none;stroke-opacity:1"
       d="m 29.056306,195.32372 c 0.664964,-0.60531 3.231703,-0.24623 3.469528,0.40042 -0.04341,0.566 -0.0447,1.13902 -0.621534,1.6161 -2.168252,0.11205 -2.319819,0.0622 -2.847994,-2.01652 z"
       id="path5048-7"
       inkscape:connector-curvature="0"
       sodipodi:nodetypes="cccc" />
    <ellipse
       style="fill:url(#linearGradient5127);fill-opacity:1;stroke:#000000;stroke-width:0.13229167;stroke-linecap:round;stroke-linejoin:bevel;stroke-miterlimit:4;stroke-dasharray:none;stroke-opacity:1;paint-order:normal"
       id="path5076-6"
       cx="30.564671"
       cy="196.17566"
       rx="0.64750683"
       ry="1.0573511" />
    <ellipse
       style="fill:#000000;fill-opacity:0.96296297;stroke:#000000;stroke-width:0.26458335;stroke-linecap:round;stroke-linejoin:bevel;stroke-miterlimit:4;stroke-dasharray:none;stroke-opacity:1;paint-order:normal"
       id="path5078-5"
       cx="30.601879"
       cy="196.1911"
       rx="0.1387444"
       ry="0.3620885" />
    <path
       style="fill:#ffffff;fill-opacity:1;fill-rule:evenodd;stroke:#000000;stroke-width:0.26458335px;stroke-linecap:butt;stroke-linejoin:miter;stroke-opacity:1"
       d="m 22.282898,238.66621 c 4.256564,0.0182 8.84832,4.09188 9.555113,5.97996 1.608947,0.39137 -0.287364,-0.16121 1.608947,0.39137 3.071071,-1.47606 6.205463,-5.05369 9.620509,-4.51993 0.08829,-0.73383 -0.206672,-5.20992 -1.156279,-6.42683 -4.064784,1.09328 -4.66437,1.76896 -8.797721,1.30626 -2.858438,-0.67894 -5.815138,-1.46124 -8.618701,-3.50392 -0.705791,1.21039 -2.073042,5.44459 -2.211868,6.77309 z"
       id="path5136"
       inkscape:connector-curvature="0"
       sodipodi:nodetypes="cccccccc" />
    <path
       style="fill:none;fill-rule:evenodd;stroke:#000000;stroke-width:0.26458335px;stroke-linecap:butt;stroke-linejoin:miter;stroke-opacity:1"
       d="m 33.692667,196.94096 c 0,0 -0.03341,1.58691 0.283972,2.37201 0.317384,0.78511 -0.88533,0.31739 -0.88533,0.31739"
       id="path5179"
       inkscape:connector-curvature="0" />
    <path
       style="fill:none;fill-rule:evenodd;stroke:#000000;stroke-width:0.26458335px;stroke-linecap:butt;stroke-linejoin:miter;stroke-opacity:1"
       d="m 31.420875,200.98341 c 0,0 3.674957,1.03567 4.409948,0.28397 0.734991,-0.75169 -3.474506,0.35079 -4.409948,-0.28397 z"
       id="path5181"
       inkscape:connector-curvature="0" />
  </g>
</svg>
